# xmcd
#
# Track frame offsets: 
#        150
#        12967
#        20102
#        31980
#        46097
#        65820
#        77627
#        93192
#        110552
#
# Disc length: 1676 seconds
#
# Revision: 2
# Processed by: cddbd v1.4PL0 Copyright (c) Steve Scherf et al.
# Submitted via: ExactAudioCopy v0.90b4
#
DISCID=6b068a09
DTITLE=Glenn Miller Orchestra - Chattanooga Choo Choo [Prime Cuts]
DYEAR=1999
DGENRE=Jazz
TTITLE0=Little Brown Jug
TTITLE1=My Blue Heaven
TTITLE2=Bugle Call Rag
TTITLE3=Stardust
TTITLE4=St Louis Blues March
TTITLE5=Hallelujah I Love Her So
TTITLE6=Chattanooga Choo Choo
TTITLE7=Anvil Chorus
TTITLE8=Moonlight Serenade
EXTD=
EXTT0=
EXTT1=
EXTT2=
EXTT3=
EXTT4=
EXTT5=
EXTT6=
EXTT7=
EXTT8=
PLAYORDER=
